<!--?xml version="1.0" standalone="no"?-->
<svg id="sw-js-blob-svg" viewBox="15 10 80 80" xmlns="http://www.w3.org/2000/svg" version="1.1">
    <path
    fill="#735f54"
    d="M19,-30C25.6,-29.2,32.5,-26,37.2,-20.6C41.8,-15.2,44.2,-7.6,41.8,-1.4C39.5,4.8,32.3,9.7,28,15.7C23.7,21.7,22.3,29,18.1,32.5C13.9,35.9,7,35.7,-0.2,36.1C-7.4,36.4,-14.8,37.4,-19.2,34C-23.7,30.7,-25.2,23.1,-27.4,16.7C-29.6,10.3,-32.4,5.2,-32.9,-0.3C-33.5,-5.8,-31.8,-11.6,-30,-18.6C-28.2,-25.6,-26.2,-33.8,-21.2,-35.5C-16.2,-37.2,-8.1,-32.5,-0.9,-30.9C6.2,-29.3,12.5,-30.9,19,-30Z"
    transform="translate(50 50)" />
</svg>
